# xmcd
#
# Track frame offsets: 
#        150
#        20867
#        34399
#        52688
#        81985
#        97238
#        112498
#        125876
#        145017
#        165173
#        186921
#        207239
#
# Disc length: 2950 seconds
#
# Revision: 0
# Processed by: cddbd v1.5.2PL0 Copyright (c) Steve Scherf et al.
# Submitted via: ExactAudioCopy v0.99pb1
#
DISCID=b20b840c
DTITLE=Пять Пенсов - По пятьдесят...
DYEAR=2008
DGENRE=Blues
TTITLE0=Sweet Home Chicago
TTITLE1=Подруга
TTITLE2=Going Down
TTITLE3=Покурим и пойдем
TTITLE4=Johnny B. Good
TTITLE5=Ещё
TTITLE6=That's All Right Mama
TTITLE7=Проблемы
TTITLE8=It's Only Rock N Roll (But I Like It)
TTITLE9=ЯННПБВТД
TTITLE10=Soldier Of Fortune
TTITLE11=Всё что я хотел сказать
EXTD=
EXTT0=
EXTT1=
EXTT2=
EXTT3=
EXTT4=
EXTT5=
EXTT6=
EXTT7=
EXTT8=
EXTT9=
EXTT10=
EXTT11=
PLAYORDER=
